<?xml version="1.0" encoding="UTF-8"?>
<!DOCTYPE svg PUBLIC "-//W3C//DTD SVG 1.1//EN" "http://www.w3.org/Graphics/SVG/1.1/DTD/svg11.dtd">
<svg version="1.1" xmlns="http://www.w3.org/2000/svg" xmlns:xlink="http://www.w3.org/1999/xlink" x="0px" y="0px" width="1100" height="800" viewBox="0, 0, 1100, 800">
  <g id="Layer 5">
    <g>
      <path d="M451.559,531.238 C451.559,531.238 122.848,476.035 118.66,384.262 C113.848,326.035 170.66,309.435 170.66,309.435 L195.944,270.746 C213.158,276.872 230.103,283.815 246.599,291.679 C255.177,295.769 264.296,300.159 271.5,306.5 C285.652,320.016 353.5,267.5 352.887,231.332 C351.645,213.093 331,202.166 316.557,195.358 C297.932,186.58 257.925,175.903 257.925,175.903 C257.925,175.903 304.566,117.436 387.258,143.5 C587.5,206.613 705.5,286.149 748.5,298.824 C791.5,311.5 846.5,229.283 884.5,231.283 C922.5,233.283 926.473,259.879 955.5,278 C984.527,296.121 913.5,367.542 913.5,367.542 C913.5,367.542 949.793,375.414 943.078,396.5 C934.793,460.414 862.902,476.668 862.902,476.668 C862.902,476.668 777.245,523.466 713.167,528.833 C649.089,534.201 451.559,531.238 451.559,531.238 z" fill="#FFFFFF"/>
      <path d="M454.115,527.448 L454.057,527.438 L453.607,527.362 L452.704,527.206 L451.357,526.97 L449.584,526.656 L447.397,526.263 L444.813,525.792 L441.845,525.243 L436.698,524.273 L428.635,522.711 L419.318,520.848 L408.858,518.685 L397.374,516.226 L384.987,513.475 L371.818,510.435 L357.986,507.11 L343.612,503.504 L328.816,499.621 L306.058,493.276 L275.363,483.881 L252.681,476.178 L237.936,470.739 L223.565,465.037 L209.739,459.097 L196.576,452.923 L184.195,446.522 L172.717,439.902 L162.255,433.07 L152.927,426.034 L144.841,418.801 L138.106,411.379 L134.035,405.736 L131.801,401.936 L129.928,398.046 L128.46,394.111 L127.411,390.127 L126.793,386.095 L126.655,384.116 L126.656,384.127 L126.475,381.429 L126.377,376.307 L126.602,371.457 L127.125,366.842 L127.924,362.459 L128.976,358.301 L130.993,352.441 L134.371,345.381 L138.354,339.171 L142.781,333.731 L147.482,329.021 L152.286,324.998 L157.029,321.623 L161.544,318.856 L165.665,316.658 L169.228,314.992 L172.066,313.821 L174.012,313.111 L174.907,312.821 L174.808,312.855 L174.808,312.855 C176.445,312.359 177.671,311.586 178.265,310.676 L178.265,310.676 L203.547,271.99 L191.192,273.964 L204.046,278.712 L222.824,286.323 L235.081,291.765 L241.129,294.598 L241.065,294.568 L244.3,296.118 L250.683,299.319 L256.718,302.749 L262.25,306.568 L264.665,308.579 L264.639,308.557 L265.341,309.142 L267.934,310.677 L271.892,312.004 L276.635,312.622 L281.365,312.479 L285.677,311.793 L291.327,310.185 L298.679,307.101 L306.089,303.066 L313.505,298.228 L320.884,292.674 L328.109,286.503 L335.033,279.821 L341.493,272.736 L347.318,265.363 L352.334,257.81 L356.362,250.187 L359.218,242.603 L360.486,236.956 L360.857,233.23 L360.887,231.357 L360.887,231.357 C360.888,231.281 360.884,231.204 360.876,231.127 L360.876,231.127 L360.704,229.44 L360.005,225.985 L358.865,222.626 L357.327,219.432 L354.409,215.014 L349.527,209.653 L343.774,204.855 L337.543,200.652 L331.182,197.006 L325.03,193.876 L322.085,192.467 L322.085,192.467 C322.019,192.436 321.953,192.405 321.885,192.375 L321.885,192.375 L318.16,190.711 L309.185,187.163 L299.306,183.684 L289.33,180.445 L279.933,177.569 L273.666,175.729 L270.031,174.687 L266.953,173.82 L264.503,173.14 L262.771,172.666 L261.846,172.416 L261.705,172.378 L265.344,177.4 L265.377,177.358 L265.621,177.065 L266.124,176.48 L266.89,175.623 L267.917,174.518 L269.203,173.193 L271.626,170.834 L275.738,167.164 L280.815,163.103 L286.84,158.852 L293.773,154.623 L301.567,150.627 L310.16,147.072 L319.476,144.157 L326.748,142.533 L331.698,141.742 L336.96,141.164 L342.389,140.853 L348.005,140.826 L353.834,141.106 L359.897,141.72 L366.223,142.699 L372.824,144.076 L379.713,145.887 L383.126,146.925 L382.961,146.874 L392.286,149.844 L410.483,155.818 L428.177,161.857 L445.396,167.953 L462.144,174.094 L478.423,180.263 L494.232,186.445 L509.573,192.625 L524.448,198.788 L538.857,204.919 L552.802,211.003 L566.285,217.024 L579.306,222.968 L591.867,228.819 L603.969,234.563 L615.614,240.183 L626.802,245.666 L637.538,250.996 L647.819,256.158 L657.651,261.138 L667.034,265.92 L675.97,270.489 L684.462,274.832 L692.512,278.933 L700.125,282.779 L707.306,286.356 L714.058,289.649 L720.389,292.646 L726.311,295.336 L731.839,297.706 L736.998,299.748 L741.827,301.453 L744.278,302.222 L744.278,302.222 C744.453,302.277 744.633,302.328 744.816,302.375 L744.816,302.375 L746.837,302.9 L752.202,303.812 L758.234,304.134 L764.239,303.764 L772.451,302.202 L782.778,298.654 L792.632,293.819 L802.106,288.069 L815.938,278.276 L834.026,264.178 L847.188,253.967 L855.627,247.872 L863.751,242.634 L871.402,238.559 L876.523,236.511 L879.393,235.706 L881.955,235.265 L883.95,235.201 L884.207,235.28 L883.322,235.239 L886.781,235.497 L892.106,236.308 L896.461,237.472 L900.431,239.002 L904.174,240.914 L907.768,243.213 L913.027,247.404 L919.727,253.949 L926.585,261.24 L934.271,268.921 L941.041,274.726 L946.255,278.541 L949.157,280.438 L949.024,280.349 L950.311,281.236 L951.895,282.782 L953.011,284.498 L953.841,286.547 L954.337,288.911 L954.472,291.556 L954.243,294.448 L953.658,297.551 L952.143,302.571 L949.092,309.68 L945.086,317.069 L940.356,324.569 L935.15,331.984 L929.719,339.119 L924.315,345.787 L919.19,351.799 L915.686,355.759 L913.57,358.097 L911.659,360.172 L909.991,361.958 L908.597,363.428 L907.508,364.561 L906.756,365.334 L906.373,365.724 L906.332,365.765 L906.332,365.765 C904.37,367.745 905.989,370.145 909.947,371.126 C910.043,371.149 910.139,371.172 910.237,371.194 L910.237,371.194 L910.337,371.216 L910.932,371.36 L912.13,371.678 L913.854,372.184 L915.991,372.883 L918.425,373.779 L922.481,375.541 L927.853,378.62 L931.226,381.368 L933.045,383.409 L934.545,385.759 L935.537,388.356 L935.922,391.223 L935.591,394.389 L935.146,395.981 L935.146,395.981 C935.126,396.057 935.111,396.132 935.099,396.208 L935.099,396.208 L934.665,399.168 L933.547,404.781 L932.108,410.086 L930.37,415.124 L928.357,419.9 L926.095,424.422 L922.267,430.779 L916.519,438.41 L910.242,445.098 L903.611,450.933 L896.817,455.965 L890.051,460.244 L883.503,463.818 L877.361,466.736 L871.817,469.043 L867.061,470.785 L863.288,472.005 L861.269,472.59 L860.344,472.838 L859.725,472.995 L859.48,473.053 L859.554,473.035 L859.554,473.035 C858.591,473.257 857.725,473.573 857.008,473.963 L857.008,473.963 L856.948,473.996 L856.477,474.25 L855.542,474.75 L854.156,475.484 L852.339,476.433 L850.11,477.584 L847.49,478.919 L844.498,480.422 L841.153,482.077 L837.478,483.868 L831.374,486.778 L822.259,490.982 L812.187,495.431 L801.311,500 L789.792,504.558 L777.796,508.975 L765.496,513.119 L753.064,516.861 L740.686,520.07 L728.556,522.619 L716.89,524.387 L711.562,524.915 L711.913,524.883 L708.817,525.128 L702.243,525.57 L694.989,525.968 L687.065,526.327 L678.54,526.646 L669.484,526.928 L655.031,527.283 L634.52,527.639 L613.048,527.875 L591.094,528.008 L569.147,528.053 L547.698,528.028 L527.232,527.948 L512.827,527.862 L503.786,527.797 L495.26,527.727 L487.315,527.654 L480.01,527.582 L473.408,527.511 L467.569,527.445 L462.553,527.384 L458.419,527.331 L455.232,527.289 L453.051,527.258 L451.934,527.242 L451.798,527.24 L451.798,527.24 C447.382,527.174 443.695,528.91 443.562,531.118 C443.43,533.327 446.903,535.17 451.319,535.236 L451.47,535.239 L452.602,535.255 L454.803,535.286 L458.01,535.328 L462.161,535.381 L467.199,535.442 L473.061,535.509 L479.688,535.58 L487.019,535.653 L494.992,535.726 L503.549,535.796 L512.633,535.862 L527.103,535.948 L547.655,536.028 L569.209,536.053 L591.283,536.007 L613.397,535.873 L635.071,535.634 L655.814,535.273 L670.476,534.912 L679.734,534.624 L688.505,534.294 L696.736,533.92 L704.377,533.499 L711.316,533.03 L714.421,532.784 L714.421,532.784 C714.538,532.775 714.655,532.764 714.771,532.752 L714.771,532.752 L721.578,532.036 L734.782,529.989 L748.063,527.169 L761.322,523.713 L774.44,519.753 L787.286,515.416 L799.721,510.831 L811.601,506.126 L822.78,501.427 L833.105,496.864 L842.413,492.569 L848.642,489.599 L852.409,487.763 L855.836,486.066 L858.907,484.524 L861.601,483.151 L863.899,481.964 L865.781,480.98 L867.228,480.215 L868.22,479.684 L868.732,479.408 L868.796,479.373 L866.251,480.301 L866.429,480.259 L867,480.12 L867.965,479.872 L869.342,479.497 L872.014,478.71 L876.548,477.227 L882.078,475.181 L888.405,472.525 L895.321,469.211 L902.62,465.194 L910.094,460.429 L917.535,454.874 L924.738,448.485 L931.497,441.222 L937.59,433.082 L941.619,426.36 L944.015,421.547 L946.138,416.481 L947.964,411.158 L949.468,405.573 L950.622,399.754 L951.057,396.792 L951.011,397.019 L951.577,394.734 L951.874,390.605 L951.22,386.771 L949.736,383.247 L947.559,380.042 L944.73,377.077 L939.82,373.31 L932.918,369.478 L927.863,367.319 L924.705,366.174 L921.906,365.271 L919.582,364.599 L917.851,364.147 L916.871,363.914 L916.763,363.89 L920.668,369.318 L920.73,369.255 L921.145,368.833 L921.93,368.025 L923.054,366.856 L924.485,365.345 L926.193,363.518 L928.146,361.396 L930.318,358.996 L933.908,354.937 L939.143,348.792 L944.673,341.965 L950.248,334.633 L955.617,326.973 L960.532,319.156 L964.738,311.352 L967.966,303.756 L969.59,298.287 L970.232,294.742 L970.465,291.312 L970.235,288.009 L969.474,284.844 L968.094,281.829 L965.985,278.991 L963.265,276.54 L961.976,275.651 L961.976,275.651 C961.932,275.621 961.888,275.592 961.843,275.562 L961.843,275.562 L959.446,274.014 L954.855,270.689 L948.58,265.341 L941.063,257.835 L933.955,250.289 L926.54,243.12 L920.282,238.229 L915.43,235.228 L909.911,232.558 L903.63,230.32 L896.572,228.625 L889.148,227.585 L885.678,227.326 L885.678,227.326 C885.385,227.305 885.089,227.291 884.793,227.285 L884.793,227.285 L881.463,227.299 L876.139,227.812 L871.2,228.835 L866.395,230.318 L859.704,233.101 L851.1,237.736 L842.47,243.319 L833.741,249.632 L820.558,259.859 L802.862,273.665 L789.733,282.997 L781.336,288.153 L773.497,292.137 L766.398,294.796 L761.765,295.86 L759.334,296.153 L757.044,296.187 L754.211,295.8 L752.184,295.274 L752.722,295.427 L751.032,294.91 L746.918,293.471 L742.252,291.632 L737.068,289.414 L731.391,286.838 L725.231,283.923 L718.6,280.689 L711.5,277.153 L703.935,273.331 L695.905,269.241 L687.413,264.898 L678.458,260.319 L669.04,255.519 L659.159,250.514 L648.813,245.32 L638.004,239.954 L626.728,234.429 L614.986,228.761 L602.776,222.967 L590.096,217.061 L576.946,211.059 L563.324,204.976 L549.228,198.827 L534.659,192.629 L519.614,186.396 L504.091,180.144 L488.089,173.888 L471.608,167.644 L454.645,161.426 L437.198,155.25 L419.269,149.132 L400.883,143.097 L391.555,140.126 L391.555,140.126 C391.501,140.109 391.446,140.092 391.39,140.075 L391.39,140.075 L387.104,138.792 L378.912,136.678 L370.862,135.043 L362.967,133.869 L355.247,133.137 L347.732,132.827 L340.448,132.912 L333.425,133.362 L326.686,134.144 L320.09,135.259 L310.907,137.401 L299.913,140.928 L290.087,145.054 L281.384,149.56 L273.775,154.234 L267.242,158.868 L261.777,163.256 L257.393,167.18 L254.806,169.703 L253.407,171.147 L252.28,172.362 L251.423,173.322 L250.842,174 L250.54,174.364 L250.506,174.407 L250.506,174.407 C248.978,176.3 250.547,178.464 254.145,179.429 L254.145,179.429 L254.235,179.453 L255.087,179.683 L256.739,180.135 L259.098,180.789 L262.075,181.628 L265.561,182.626 L271.581,184.393 L280.619,187.155 L290.104,190.229 L299.275,193.444 L307.498,196.676 L311.228,198.342 L311.028,198.25 L313.633,199.491 L319.15,202.28 L324.722,205.438 L330.087,208.998 L334.992,212.997 L339.229,217.542 L341.782,221.326 L343.097,223.986 L344.089,226.8 L344.725,229.847 L344.897,231.537 L344.887,231.307 L344.875,232.848 L344.583,236.078 L343.491,241.132 L340.89,248.15 L337.146,255.294 L332.433,262.428 L326.931,269.422 L320.823,276.144 L314.296,282.466 L307.546,288.255 L300.782,293.377 L294.245,297.687 L288.252,301.033 L283.107,303.321 L280.194,304.278 L279.267,304.548 L279.187,304.724 L279.592,304.992 L279.729,305.271 L279.064,305.029 L278.361,304.443 L278.361,304.443 C278.352,304.436 278.344,304.428 278.335,304.421 L278.335,304.421 L275.176,301.853 L268.716,297.456 L262.012,293.669 L255.372,290.343 L252.132,288.79 L252.132,288.79 C252.111,288.78 252.09,288.77 252.069,288.76 L252.069,288.76 L245.703,285.782 L232.898,280.107 L213.557,272.279 L200.695,267.528 L200.695,267.528 C200.007,267.274 199.243,267.077 198.43,266.944 C194.231,266.258 189.713,267.403 188.34,269.503 L188.34,269.503 L163.055,308.193 L166.512,306.014 L166.088,306.147 L164.507,306.675 L161.836,307.67 L158.261,309.167 L153.961,311.203 L149.119,313.816 L143.915,317.04 L138.532,320.911 L133.15,325.464 L127.95,330.729 L123.11,336.74 L118.806,343.527 L115.224,351.087 L113.102,357.3 L111.989,361.736 L111.15,366.393 L110.606,371.273 L110.378,376.384 L110.484,381.696 L110.665,384.396 L110.665,384.396 C110.665,384.4 110.665,384.404 110.665,384.407 L110.665,384.407 L110.842,386.717 L111.551,391.181 L112.735,395.585 L114.376,399.928 L116.458,404.206 L118.995,408.464 L123.546,414.697 L130.884,422.713 L139.599,430.46 L149.558,437.937 L160.632,445.145 L172.697,452.085 L185.631,458.758 L199.312,465.165 L213.621,471.305 L228.437,477.176 L243.692,482.796 L267.011,490.704 L298.262,500.262 L321.377,506.704 L336.433,510.654 L351.05,514.319 L365.108,517.697 L378.489,520.785 L391.072,523.579 L402.74,526.077 L413.373,528.275 L422.853,530.17 L431.05,531.758 L436.29,532.745 L439.329,533.307 L441.983,533.791 L444.237,534.196 L446.075,534.522 L447.482,534.768 L448.443,534.933 L448.94,535.018 L449.002,535.029 C453.189,535.734 457.727,534.61 459.139,532.516 C460.551,530.423 458.302,528.154 454.115,527.448 L454.115,527.448" fill="#000000"/>
    </g>
    <g>
      <path d="M170.66,309.435 C170.66,309.435 113.848,326.035 118.66,384.262 C122.848,476.035 451.559,531.238 451.559,531.238 C451.559,531.238 649.089,534.201 713.167,528.833 C777.245,523.466 862.902,476.668 862.902,476.668 C862.902,476.668 461.215,461.5 245.053,370.826 C161.132,335.623 170.66,309.435 170.66,309.435 z" fill="#FF6100"/>
      <path d="M166.508,306.015 L166.349,306.064 L164.851,306.555 L162.197,307.529 L158.63,309.004 L154.329,311.019 L149.48,313.608 L144.259,316.812 L138.853,320.663 L133.438,325.199 L128.2,330.451 L123.317,336.454 L118.967,343.239 L115.326,350.837 L113.154,357.124 L112.019,361.597 L111.17,366.256 L110.617,371.14 L110.38,376.254 L110.48,381.601 L110.665,384.395 L110.665,384.395 C110.665,384.4 110.665,384.404 110.666,384.409 L110.666,384.409 L110.823,386.552 L111.505,390.965 L112.667,395.375 L114.289,399.725 L116.354,404.012 L118.844,408.235 L123.306,414.402 L130.583,422.416 L139.284,430.202 L149.243,437.717 L160.325,444.957 L172.404,451.925 L185.354,458.622 L199.053,465.049 L213.381,471.205 L228.214,477.091 L243.438,482.706 L266.693,490.602 L297.984,500.18 L321.199,506.656 L336.304,510.621 L350.93,514.29 L364.995,517.671 L378.384,520.761 L390.974,523.558 L402.648,526.058 L413.287,528.258 L422.773,530.154 L430.983,531.745 L436.244,532.737 L439.294,533.301 L441.948,533.785 L444.202,534.19 L446.042,534.516 L447.45,534.762 L448.415,534.929 L448.918,535.014 L449.001,535.028 L449.001,535.028 C449.751,535.155 450.533,535.225 451.324,535.237 L451.324,535.237 L451.462,535.239 L452.594,535.255 L454.793,535.286 L458,535.328 L462.152,535.381 L467.187,535.442 L473.05,535.509 L479.676,535.58 L487.006,535.653 L494.978,535.725 L503.534,535.796 L512.611,535.861 L527.071,535.948 L547.612,536.028 L569.157,536.053 L591.22,536.008 L613.317,535.874 L634.97,535.636 L655.698,535.276 L670.371,534.915 L679.633,534.627 L688.381,534.299 L696.582,533.928 L704.184,533.51 L711.134,533.043 L714.416,532.784 L714.416,532.784 C714.536,532.775 714.655,532.764 714.774,532.752 L714.774,532.752 L720.839,532.13 L734.015,530.128 L747.488,527.304 L760.883,523.836 L774.097,519.862 L787.013,515.512 L799.501,510.915 L811.421,506.199 L822.629,501.492 L832.978,496.921 L842.317,492.614 L848.58,489.628 L852.363,487.786 L855.794,486.087 L858.867,484.543 L861.564,483.17 L863.865,481.982 L865.748,480.998 L867.197,480.231 L868.192,479.7 L868.711,479.419 L868.794,479.374 L868.794,479.374 C871.783,477.747 871.568,475.217 868.314,473.722 C866.993,473.115 865.301,472.748 863.511,472.68 L863.511,472.68 L863.442,472.677 L862.88,472.655 L861.756,472.608 L860.079,472.537 L857.859,472.438 L855.114,472.311 L851.856,472.154 L848.097,471.966 L843.85,471.745 L839.13,471.491 L833.95,471.202 L828.323,470.875 L822.265,470.511 L815.786,470.108 L805.301,469.425 L789.982,468.364 L773.234,467.122 L755.159,465.687 L735.865,464.047 L715.458,462.193 L694.046,460.112 L671.737,457.795 L648.641,455.23 L624.865,452.407 L600.515,449.314 L575.702,445.941 L550.531,442.277 L512.309,436.206 L473.928,429.426 L448.459,424.5 L423.134,419.223 L398.103,413.592 L373.475,407.598 L349.357,401.231 L325.857,394.479 L303.085,387.336 L281.148,379.79 L260.151,371.833 L250.117,367.729 L250.235,367.779 L246.371,366.136 L239.163,362.943 L232.514,359.829 L226.369,356.781 L220.705,353.801 L215.502,350.893 L210.742,348.06 L206.405,345.305 L202.471,342.632 L198.921,340.043 L194.236,336.294 L189.165,331.625 L185.313,327.375 L182.487,323.538 L180.529,320.134 L179.288,317.184 L178.612,314.71 L178.35,312.732 L178.355,311.271 L178.48,310.347 L178.58,309.98 L178.556,310.077 L162.66,309.434 L162.66,309.433 L162.66,309.433 C162.658,311.642 166.238,313.434 170.656,313.435 C175.075,313.436 178.658,311.646 178.66,309.436 L178.66,309.435 L178.66,309.435 C178.661,307.474 175.817,305.801 171.945,305.486 C167.584,305.132 163.473,306.612 162.764,308.792 L162.764,308.792 L162.691,309.041 L162.508,309.875 L162.355,311.304 L162.39,313.297 L162.768,315.824 L163.642,318.857 L165.165,322.366 L167.485,326.32 L170.753,330.691 L175.112,335.45 L180.672,340.538 L185.729,344.57 L189.587,347.375 L193.836,350.256 L198.494,353.208 L203.579,356.228 L209.109,359.314 L215.103,362.461 L221.578,365.668 L228.552,368.931 L236.004,372.229 L239.872,373.873 L239.872,373.873 C239.911,373.89 239.95,373.906 239.99,373.923 L239.99,373.923 L250.488,378.209 L272.079,386.381 L294.582,394.112 L317.886,401.416 L341.883,408.304 L366.47,414.791 L391.537,420.888 L416.977,426.607 L442.686,431.961 L468.596,436.969 L507.462,443.83 L546.058,449.958 L571.5,453.66 L596.572,457.067 L621.163,460.19 L645.169,463.04 L668.48,465.628 L690.99,467.965 L712.593,470.064 L733.181,471.934 L752.648,473.588 L770.883,475.035 L787.784,476.289 L803.232,477.358 L813.804,478.046 L820.351,478.454 L826.478,478.822 L832.169,479.152 L837.412,479.445 L842.193,479.702 L846.5,479.926 L850.319,480.117 L853.637,480.277 L856.438,480.406 L858.71,480.507 L860.441,480.581 L861.616,480.63 L862.216,480.653 L862.294,480.656 L857.011,473.962 L856.969,473.985 L856.506,474.235 L855.573,474.734 L854.189,475.466 L852.373,476.416 L850.147,477.565 L847.529,478.899 L844.54,480.401 L841.199,482.055 L837.54,483.838 L831.47,486.733 L822.386,490.925 L812.338,495.366 L801.491,499.926 L790.012,504.474 L778.069,508.879 L765.839,513.01 L753.504,516.738 L741.261,519.935 L729.324,522.48 L717.629,524.293 L711.56,524.915 L711.918,524.882 L709,525.115 L702.436,525.558 L695.143,525.96 L687.188,526.321 L678.641,526.643 L669.589,526.925 L655.147,527.28 L634.621,527.637 L613.128,527.874 L591.158,528.008 L569.2,528.053 L547.741,528.028 L527.264,527.948 L512.848,527.862 L503.801,527.797 L495.274,527.727 L487.328,527.654 L480.023,527.582 L473.42,527.511 L467.58,527.445 L462.562,527.384 L458.429,527.331 L455.242,527.289 L453.059,527.258 L451.942,527.242 L451.793,527.24 L454.116,527.448 L454.08,527.442 L453.636,527.367 L452.735,527.211 L451.391,526.976 L449.619,526.662 L447.433,526.269 L444.848,525.798 L441.891,525.251 L436.765,524.285 L428.715,522.727 L419.404,520.865 L408.949,518.704 L397.472,516.247 L385.092,513.498 L371.931,510.461 L358.106,507.14 L343.741,503.537 L328.993,499.669 L306.336,493.357 L275.681,483.983 L252.935,476.268 L238.159,470.824 L223.805,465.136 L209.997,459.213 L196.853,453.059 L184.489,446.682 L173.024,440.09 L162.57,433.29 L153.242,426.291 L145.143,419.099 L138.347,411.674 L134.186,405.965 L131.905,402.13 L130.015,398.25 L128.528,394.321 L127.457,390.343 L126.812,386.26 L126.655,384.114 L126.656,384.129 L126.479,381.524 L126.375,376.437 L126.592,371.59 L127.105,366.978 L127.894,362.598 L128.923,358.477 L130.891,352.691 L134.21,345.67 L138.147,339.456 L142.531,334.009 L147.194,329.285 L151.966,325.247 L156.685,321.851 L161.183,319.063 L165.297,316.843 L168.859,315.155 L171.705,313.963 L173.669,313.231 L174.646,312.904 L174.812,312.854 C178.589,311.707 179.791,309.247 177.498,307.359 C175.205,305.47 170.285,304.869 166.508,306.015 L166.508,306.015" fill="#000000"/>
    </g>
    <path d="M244.062,209.256 L286.261,194.285" fill-opacity="0" stroke="#AAB6FF" stroke-width="8"/>
    <path d="M237.923,229.352 L306.528,206.613" fill-opacity="0" stroke="#AAB6FF" stroke-width="8"/>
    <path d="M267.831,290.888 L310.104,278" fill-opacity="0" stroke="#AAB6FF" stroke-width="8"/>
    <path d="M259.123,237.781 L301.395,224.893" fill-opacity="0" stroke="#AAB6FF" stroke-width="8"/>
    <path d="M779.836,315.563 L781.437,316.619 L785.619,319.155 L790.861,322.113 L796.985,325.402 L803.838,328.943 L811.261,332.655 L823.104,338.357 L839.386,345.776 L851.275,350.841 L858.751,353.825 L865.666,356.389 L871.888,358.459 L877.296,359.957 L880.85,360.674 L883.085,360.94 L884.306,360.997 L884.306,360.997 C885.959,361.051 887.386,360.424 887.494,359.597 C887.601,358.77 886.348,358.057 884.694,358.003 L884.376,358.01 L883.063,357.886 L880.196,357.33 L875.209,355.96 L869.24,353.979 L862.494,351.48 L855.167,348.558 L843.428,343.558 L827.266,336.195 L815.504,330.534 L808.15,326.857 L801.376,323.357 L795.351,320.123 L790.249,317.247 L786.22,314.807 L784.617,313.75 C783.616,313.09 781.734,312.96 780.414,313.461 C779.094,313.962 778.835,314.903 779.836,315.563 L779.836,315.563" fill="#000000"/>
    <g>
      <g>
        <path d="M370.289,545.134 C370.289,545.134 434.546,578.466 486.607,554.792 C547.071,512.857 554.849,504.75 499.43,464.741 C470.462,428.652 383.129,447.679 383.129,447.679" fill="#EAEAEA"/>
        <path d="M366.704,546.877 L366.749,546.9 L367.151,547.103 L367.919,547.482 L369.035,548.017 L371.313,549.068 L375.432,550.86 L380.702,552.982 L387.005,555.296 L394.236,557.671 L402.295,559.973 L411.085,562.069 L420.51,563.822 L430.479,565.091 L440.896,565.732 L451.649,565.589 L462.602,564.508 L473.576,562.341 L484.375,558.958 L489.814,556.71 L489.814,556.71 C490.135,556.576 490.421,556.422 490.665,556.253 L490.665,556.253 L493.46,554.312 L498.826,550.568 L503.887,546.998 L508.642,543.592 L513.089,540.335 L517.228,537.216 L522.84,532.776 L529.223,527.219 L534.352,521.963 L538.186,516.907 L540.676,511.951 L541.76,507.006 L541.382,502.006 L539.52,496.901 L536.19,491.63 L532.726,487.492 L529.967,484.635 L526.879,481.71 L523.439,478.676 L519.645,475.521 L515.496,472.232 L510.99,468.794 L506.124,465.194 L503.548,463.323 L504.033,463.765 L502.634,462.114 L499.466,458.911 L495.92,455.963 L492.057,453.305 L487.907,450.929 L483.501,448.827 L476.576,446.197 L466.75,443.52 L456.43,441.69 L445.974,440.624 L435.626,440.194 L425.6,440.274 L416.102,440.742 L407.333,441.481 L399.493,442.377 L392.788,443.317 L387.418,444.192 L384.37,444.743 L382.86,445.034 L381.822,445.243 L381.261,445.36 L381.152,445.383 L381.152,445.383 C378.616,445.929 377.444,447.4 378.536,448.668 C379.628,449.936 382.569,450.522 385.106,449.976 C385.106,449.976 385.106,449.976 385.106,449.976 L385.123,449.972 L385.557,449.881 L386.457,449.699 L387.775,449.444 L390.521,448.945 L395.494,448.131 L401.731,447.25 L409.006,446.411 L417.099,445.717 L425.782,445.273 L434.829,445.178 L444.018,445.527 L453.14,446.412 L462.008,447.922 L470.556,450.19 L476.62,452.455 L480.396,454.23 L483.984,456.256 L487.362,458.55 L490.507,461.132 L493.426,464.064 L494.826,465.717 L494.826,465.717 C494.958,465.872 495.12,466.02 495.311,466.158 L495.311,466.158 L497.838,467.993 L502.625,471.534 L507.037,474.898 L511.075,478.098 L514.741,481.143 L518.037,484.045 L520.965,486.812 L523.508,489.431 L526.664,493.151 L529.69,497.821 L531.391,502.222 L531.815,506.483 L530.969,510.748 L528.828,515.144 L525.361,519.774 L520.551,524.73 L514.387,530.105 L508.895,534.452 L504.832,537.515 L500.443,540.729 L495.73,544.106 L490.698,547.655 L485.346,551.39 L482.549,553.332 L483.4,552.874 L479.012,554.737 L469.837,557.703 L460.602,559.609 L451.334,560.592 L442.079,560.767 L432.923,560.243 L423.98,559.133 L415.378,557.553 L407.248,555.63 L399.719,553.49 L392.92,551.265 L386.971,549.086 L381.994,547.087 L378.095,545.394 L375.955,544.408 L374.939,543.921 L374.259,543.586 L373.922,543.416 L373.874,543.391 C371.95,542.401 368.784,542.379 366.804,543.341 C364.824,544.304 364.779,545.886 366.704,546.877 L366.704,546.877" fill="#000000"/>
      </g>
      <g>
        <path d="M370.289,545.134 C357.037,543.388 349.169,520.157 352.715,493.245 C356.26,466.334 369.877,445.933 383.129,447.679 C396.38,449.425 404.249,472.657 400.703,499.568 C397.157,526.479 383.541,546.88 370.289,545.134 z" fill="#EAEAEA"/>
        <path d="M372.018,542.788 L370.793,542.562 L369.561,542.038 L368.278,541.176 L366.715,539.803 L365.084,537.937 L363.502,535.623 L362.033,532.905 L360.712,529.824 L359.561,526.413 L358.599,522.705 L357.531,516.634 L356.881,507.786 L357.182,498.283 L357.708,493.379 L357.7,493.441 L358.48,488.476 L360.668,479.19 L363.596,470.831 L367.136,463.563 L370.089,458.976 L372.147,456.388 L374.271,454.17 L376.4,452.384 L378.459,451.069 L380.32,450.261 L381.767,449.962 L382.598,450.055 L382.339,450.148 L381.401,450.025 L382.624,450.251 L383.858,450.776 L385.139,451.638 L386.703,453.01 L388.334,454.876 L389.916,457.19 L391.385,459.908 L392.706,462.99 L393.856,466.401 L394.819,470.108 L395.886,476.179 L396.537,485.028 L396.236,494.53 L395.71,499.435 L395.718,499.373 L394.938,504.337 L392.75,513.623 L389.822,521.982 L386.282,529.251 L383.329,533.838 L381.271,536.425 L379.146,538.643 L377.018,540.429 L374.959,541.744 L373.098,542.552 L371.651,542.852 L370.819,542.759 L371.078,542.665 L375.25,544.823 L375.251,544.825 L375.251,544.825 C374.909,543.454 372.41,542.482 369.67,542.653 C366.93,542.824 364.986,544.073 365.327,545.443 L365.328,545.445 L365.328,545.445 C365.604,546.548 367.304,547.427 369.5,547.603 L369.5,547.603 L372.245,547.708 L376.383,547.256 L379.877,546.228 L382.898,544.784 L385.631,542.97 L388.174,540.794 L390.57,538.265 L392.851,535.365 L395.999,530.432 L399.672,522.844 L402.681,514.209 L404.907,504.73 L405.688,499.763 L405.688,499.763 C405.691,499.743 405.694,499.722 405.696,499.701 L405.696,499.701 L406.235,494.609 L406.53,484.844 L405.848,475.741 L404.736,469.463 L403.716,465.567 L402.482,461.937 L401.034,458.595 L399.367,455.556 L397.462,452.834 L395.276,450.436 L392.707,448.369 L389.56,446.669 L386.086,445.56 L384.857,445.333 L384.857,445.333 C384.553,445.277 384.239,445.236 383.919,445.211 L383.919,445.211 L381.173,445.106 L377.034,445.557 L373.541,446.585 L370.52,448.029 L367.787,449.844 L365.244,452.019 L362.848,454.549 L360.567,457.449 L357.419,462.382 L353.746,469.97 L350.737,478.605 L348.511,488.083 L347.73,493.05 L347.73,493.05 C347.727,493.071 347.724,493.092 347.722,493.112 L347.722,493.112 L347.183,498.204 L346.888,507.97 L347.57,517.072 L348.682,523.35 L349.702,527.247 L350.936,530.876 L352.384,534.219 L354.052,537.258 L355.956,539.979 L358.142,542.377 L360.711,544.444 L363.857,546.145 L367.333,547.254 L368.56,547.48 C371.151,547.957 374.026,547.294 374.981,545.998 C375.935,544.703 374.609,543.266 372.018,542.788 L372.018,542.788" fill="#000000"/>
      </g>
      <path d="M374.039,476.721 L374.014,475.509 L374.343,473.295 L375.084,471.274 L376.156,469.487 L377.459,468.036 L378.845,467.033 L380.028,466.599 L380.426,466.748 L379.97,467.058 L380.298,467.611 L381.415,469.061 L382.648,471.547 L383.692,475.087 L384.397,479.723 L384.661,485.514 L384.516,490.648 L384.238,494.468 L384.041,496.497 L384.043,496.481 L383.61,500.25 L382.609,506.969 L381.448,512.673 L380.156,517.43 L378.761,521.301 L377.3,524.341 L375.815,526.599 L374.378,528.116 L373.133,528.917 L372.417,529.046 L372.665,528.788 L373.139,528.61 L372.344,527.907 L370.692,525.916 L370.029,524.714 L370.029,524.714 C369.447,523.72 367.365,523.151 365.377,523.441 C363.389,523.732 362.249,524.773 362.831,525.767 L363.87,527.474 L366.681,530.366 L369.957,532.006 L373.392,532.52 L376.739,532.111 L379.207,531.117 L381.181,529.695 L382.946,527.762 L384.593,525.214 L386.143,521.965 L387.587,517.935 L388.91,513.052 L390.088,507.248 L391.098,500.466 L391.531,496.695 L391.531,496.695 C391.532,496.69 391.532,496.685 391.533,496.679 L391.533,496.679 L391.733,494.604 L392.015,490.701 L392.159,485.428 L391.875,479.436 L391.109,474.53 L389.91,470.609 L388.281,467.552 L386.068,465.215 L382.753,463.576 L378.49,463.125 L375.072,463.785 L372.582,464.97 L370.589,466.532 L368.96,468.431 L367.7,470.616 L366.862,473.028 L366.515,475.546 L366.539,476.76 C366.561,477.796 368.257,478.626 370.328,478.616 C372.399,478.605 374.06,477.757 374.039,476.721 L374.039,476.721" fill="#000000"/>
      <g>
        <path d="M386.43,482.741 C357.93,479.241 355.43,515.241 380.93,518.741" fill="#FF6100"/>
        <path d="M387.041,480.891 L384.446,480.676 L378.767,480.871 L373.372,482.025 L368.915,483.993 L365.461,486.531 L362.888,489.473 L361.085,492.711 L359.991,496.152 L359.577,499.707 L359.833,503.282 L360.761,506.785 L362.371,510.122 L364.69,513.201 L367.767,515.927 L371.685,518.201 L376.556,519.885 L379.644,520.502 L379.644,520.502 C381.59,520.857 383.742,520.356 384.452,519.384 C385.162,518.411 384.161,517.334 382.215,516.979 L380.686,516.755 L377.304,515.717 L374.273,514.062 L371.697,511.864 L369.657,509.232 L368.194,506.285 L367.328,503.14 L367.065,499.916 L367.402,496.729 L368.32,493.699 L369.786,490.945 L371.733,488.588 L374.044,486.729 L376.593,485.412 L379.436,484.606 L383.222,484.376 L385.819,484.591 C387.862,484.759 389.792,484.068 390.13,483.046 C390.467,482.025 389.084,481.06 387.041,480.891 L387.041,480.891" fill="#000000"/>
      </g>
    </g>
    <g>
      <g>
        <path d="M451.67,636.185 C451.67,636.185 515.927,669.517 567.989,645.843 C628.452,603.908 636.23,595.801 580.811,555.792 C551.843,519.703 464.51,538.73 464.51,538.73" fill="#EAEAEA"/>
        <path d="M448.085,637.927 L448.13,637.951 L448.532,638.154 L449.3,638.533 L450.416,639.067 L452.694,640.119 L456.814,641.911 L462.083,644.033 L468.386,646.347 L475.617,648.722 L483.676,651.024 L492.466,653.12 L501.891,654.873 L511.86,656.142 L522.277,656.782 L533.03,656.64 L543.983,655.559 L554.957,653.392 L565.756,650.008 L571.195,647.761 L571.195,647.761 C571.516,647.627 571.802,647.473 572.047,647.304 L572.047,647.304 L574.841,645.363 L580.207,641.619 L585.268,638.049 L590.023,634.642 L594.471,631.386 L598.609,628.267 L604.221,623.827 L610.605,618.27 L615.733,613.014 L619.567,607.958 L622.057,603.002 L623.141,598.057 L622.763,593.057 L620.901,587.952 L617.571,582.681 L614.107,578.543 L611.348,575.686 L608.26,572.76 L604.82,569.727 L601.026,566.572 L596.877,563.283 L592.371,559.844 L587.505,556.244 L584.929,554.374 L585.414,554.816 L584.015,553.165 L580.847,549.962 L577.301,547.014 L573.438,544.356 L569.288,541.98 L564.882,539.877 L557.957,537.248 L548.131,534.57 L537.811,532.741 L527.356,531.675 L517.007,531.245 L506.981,531.325 L497.483,531.793 L488.714,532.532 L480.875,533.428 L474.169,534.368 L468.799,535.243 L465.751,535.794 L464.241,536.085 L463.203,536.293 L462.642,536.411 L462.533,536.434 L462.533,536.434 C459.997,536.98 458.826,538.451 459.917,539.719 C461.009,540.987 463.951,541.572 466.487,541.026 C466.487,541.026 466.487,541.026 466.487,541.026 L466.504,541.023 L466.939,540.931 L467.838,540.75 L469.156,540.495 L471.902,539.996 L476.875,539.182 L483.112,538.301 L490.387,537.462 L498.48,536.768 L507.163,536.324 L516.21,536.229 L525.399,536.578 L534.521,537.463 L543.39,538.973 L551.937,541.241 L558.001,543.506 L561.777,545.281 L565.365,547.306 L568.744,549.601 L571.888,552.183 L574.807,555.115 L576.207,556.767 L576.207,556.767 C576.339,556.922 576.501,557.07 576.692,557.209 L576.692,557.209 L579.219,559.043 L584.006,562.584 L588.418,565.949 L592.456,569.149 L596.122,572.194 L599.418,575.096 L602.347,577.863 L604.89,580.482 L608.045,584.202 L611.071,588.872 L612.772,593.272 L613.196,597.534 L612.35,601.799 L610.209,606.195 L606.743,610.825 L601.932,615.781 L595.768,621.155 L590.276,625.502 L586.213,628.566 L581.824,631.78 L577.112,635.156 L572.079,638.706 L566.727,642.441 L563.93,644.383 L564.781,643.925 L560.393,645.788 L551.219,648.754 L541.984,650.66 L532.715,651.643 L523.46,651.818 L514.304,651.294 L505.361,650.183 L496.759,648.604 L488.629,646.68 L481.101,644.541 L474.301,642.316 L468.353,640.137 L463.375,638.138 L459.476,636.444 L457.337,635.458 L456.32,634.972 L455.64,634.637 L455.303,634.467 L455.255,634.442 C453.331,633.452 450.165,633.43 448.185,634.392 C446.205,635.355 446.16,636.937 448.085,637.927 L448.085,637.927" fill="#000000"/>
      </g>
      <g>
        <path d="M451.67,636.185 C438.419,634.439 430.55,611.208 434.096,584.296 C437.642,557.385 451.258,536.984 464.51,538.73 C477.762,540.476 485.63,563.707 482.084,590.619 C478.539,617.53 464.922,637.931 451.67,636.185 z" fill="#EAEAEA"/>
        <path d="M453.399,633.839 L452.174,633.613 L450.942,633.089 L449.659,632.226 L448.096,630.854 L446.465,628.988 L444.883,626.674 L443.414,623.956 L442.093,620.874 L440.942,617.463 L439.98,613.756 L438.913,607.685 L438.262,598.836 L438.563,589.334 L439.089,584.429 L439.081,584.492 L439.861,579.527 L442.049,570.241 L444.977,561.882 L448.517,554.613 L451.47,550.027 L453.528,547.439 L455.653,545.221 L457.781,543.435 L459.84,542.12 L461.701,541.312 L463.148,541.012 L463.98,541.105 L463.72,541.199 L462.782,541.076 L464.005,541.302 L465.239,541.827 L466.52,542.688 L468.084,544.061 L469.715,545.927 L471.297,548.241 L472.766,550.959 L474.087,554.041 L475.238,557.451 L476.2,561.159 L477.268,567.23 L477.918,576.079 L477.617,585.581 L477.091,590.486 L477.099,590.424 L476.319,595.388 L474.131,604.674 L471.203,613.033 L467.663,620.302 L464.71,624.888 L462.652,627.476 L460.528,629.694 L458.399,631.48 L456.34,632.795 L454.48,633.603 L453.032,633.902 L452.2,633.81 L452.459,633.716 L456.631,635.874 L456.632,635.875 L456.632,635.875 C456.29,634.505 453.791,633.533 451.051,633.704 C448.311,633.875 446.367,635.124 446.709,636.494 L446.709,636.496 L446.709,636.496 C446.985,637.599 448.685,638.478 450.881,638.654 L450.881,638.654 L453.626,638.759 L457.764,638.307 L461.258,637.279 L464.279,635.835 L467.012,634.021 L469.555,631.845 L471.951,629.316 L474.232,626.415 L477.38,621.482 L481.053,613.894 L484.062,605.259 L486.288,595.781 L487.069,590.814 L487.069,590.814 C487.072,590.793 487.075,590.773 487.077,590.752 L487.077,590.752 L487.616,585.66 L487.911,575.895 L487.229,566.792 L486.117,560.514 L485.097,556.617 L483.863,552.988 L482.415,549.645 L480.748,546.607 L478.843,543.885 L476.657,541.487 L474.088,539.42 L470.941,537.719 L467.467,536.611 L466.238,536.384 L466.238,536.384 C465.934,536.328 465.62,536.287 465.3,536.262 L465.3,536.262 L462.554,536.156 L458.415,536.608 L454.922,537.636 L451.901,539.08 L449.168,540.894 L446.625,543.07 L444.229,545.6 L441.948,548.5 L438.8,553.433 L435.127,561.021 L432.118,569.656 L429.892,579.134 L429.111,584.101 L429.111,584.101 C429.108,584.122 429.105,584.142 429.103,584.163 L429.103,584.163 L428.564,589.255 L428.269,599.02 L428.951,608.123 L430.063,614.401 L431.083,618.298 L432.317,621.927 L433.765,625.27 L435.433,628.309 L437.337,631.03 L439.523,633.428 L442.092,635.495 L445.238,637.195 L448.714,638.304 L449.941,638.531 C452.533,639.008 455.407,638.345 456.362,637.049 C457.317,635.754 455.99,634.316 453.399,633.839 L453.399,633.839" fill="#000000"/>
      </g>
      <path d="M455.42,567.772 L455.395,566.56 L455.724,564.346 L456.465,562.325 L457.537,560.538 L458.84,559.087 L460.226,558.084 L461.41,557.65 L461.807,557.799 L461.351,558.109 L461.679,558.662 L462.796,560.112 L464.029,562.597 L465.073,566.138 L465.778,570.774 L466.042,576.565 L465.897,581.699 L465.619,585.519 L465.423,587.548 L465.424,587.532 L464.991,591.301 L463.99,598.02 L462.829,603.724 L461.537,608.481 L460.142,612.352 L458.681,615.392 L457.196,617.65 L455.759,619.167 L454.514,619.968 L453.798,620.097 L454.046,619.839 L454.52,619.661 L453.725,618.958 L452.073,616.967 L451.41,615.765 L451.41,615.765 C450.828,614.771 448.746,614.201 446.758,614.492 C444.77,614.783 443.63,615.824 444.212,616.818 L445.251,618.525 L448.063,621.417 L451.338,623.057 L454.773,623.571 L458.12,623.162 L460.588,622.168 L462.562,620.746 L464.327,618.813 L465.974,616.265 L467.524,613.016 L468.969,608.985 L470.291,604.103 L471.469,598.299 L472.479,591.517 L472.912,587.746 L472.912,587.746 C472.913,587.741 472.913,587.735 472.914,587.73 L472.914,587.73 L473.115,585.655 L473.397,581.752 L473.54,576.479 L473.256,570.487 L472.49,565.581 L471.291,561.66 L469.662,558.603 L467.449,556.266 L464.134,554.627 L459.871,554.176 L456.453,554.836 L453.963,556.021 L451.97,557.583 L450.341,559.481 L449.082,561.666 L448.243,564.078 L447.896,566.597 L447.92,567.811 C447.942,568.846 449.638,569.677 451.709,569.667 C453.78,569.656 455.441,568.808 455.42,567.772 L455.42,567.772" fill="#000000"/>
      <g>
        <path d="M467.811,573.792 C439.311,570.292 436.811,606.292 462.311,609.792" fill="#FF6100"/>
        <path d="M468.422,571.942 L465.828,571.727 L460.148,571.922 L454.753,573.076 L450.297,575.043 L446.843,577.582 L444.269,580.524 L442.466,583.762 L441.372,587.203 L440.958,590.758 L441.215,594.333 L442.142,597.836 L443.752,601.173 L446.071,604.251 L449.148,606.978 L453.066,609.251 L457.937,610.936 L461.025,611.553 L461.025,611.553 C462.971,611.908 465.124,611.407 465.834,610.434 C466.544,609.462 465.542,608.385 463.596,608.03 L462.067,607.805 L458.685,606.768 L455.654,605.112 L453.079,602.914 L451.038,600.283 L449.575,597.335 L448.709,594.191 L448.447,590.967 L448.783,587.78 L449.701,584.75 L451.167,581.996 L453.114,579.638 L455.426,577.78 L457.974,576.463 L460.817,575.657 L464.603,575.427 L467.2,575.642 C469.243,575.81 471.173,575.119 471.511,574.097 C471.848,573.075 470.465,572.11 468.422,571.942 L468.422,571.942" fill="#000000"/>
      </g>
    </g>
    <g>
      <path d="M139.292,418.574 C191.333,442.317 245.053,415.285 245.053,370.826 C245.053,366.211 247.572,286.47 168.716,312.136 C115.37,337.279 117.561,369.383 119.613,385.25 C121.665,401.116 139.292,418.574 139.292,418.574 z" fill="#151515"/>
      <path d="M134.107,421.62 L138.987,423.697 L149.452,427.256 L160.319,429.76 L171.293,431.111 L182.219,431.299 L192.857,430.338 L202.952,428.291 L212.311,425.256 L220.818,421.343 L228.424,416.64 L235.094,411.222 L240.793,405.146 L245.478,398.465 L249.096,391.224 L251.584,383.47 L252.874,375.249 L253.052,370.902 L253.052,370.902 C253.053,370.881 253.053,370.861 253.053,370.84 L253.053,370.84 L253.058,370.195 L253.051,367.69 L252.917,363.78 L252.531,358.749 L251.768,352.861 L250.5,346.378 L248.599,339.556 L245.926,332.647 L242.336,325.898 L238.906,321.038 L236.196,317.937 L233.169,315.055 L229.744,312.373 L225.869,309.922 L221.483,307.746 L216.529,305.898 L210.972,304.451 L204.838,303.488 L198.209,303.081 L191.209,303.272 L183.933,304.069 L176.419,305.467 L168.654,307.463 L164.505,308.736 L164.505,308.736 C164.001,308.892 163.533,309.075 163.11,309.283 L163.11,309.283 L158.272,311.659 L149.185,316.696 L141.2,321.92 L134.362,327.235 L128.593,332.599 L123.813,337.971 L119.939,343.313 L116.885,348.585 L114.563,353.751 L112.884,358.773 L111.761,363.616 L111.107,368.246 L110.833,372.626 L110.853,376.723 L111.245,382.233 L111.627,385.484 L111.627,385.484 C111.632,385.531 111.639,385.577 111.648,385.623 L111.648,385.623 L112.207,388.61 L114.302,394.882 L117.325,400.978 L120.837,406.592 L124.438,411.519 L127.737,415.555 L129.791,417.883 L130.866,419.047 L131.635,419.852 L132.059,420.285 L132.137,420.364 L132.137,420.364 C134.114,422.339 138.92,423.14 142.871,422.151 C146.823,421.163 148.423,418.76 146.446,416.784 L146.423,416.761 L146.074,416.406 L145.388,415.689 L144.427,414.651 L142.545,412.526 L139.463,408.769 L136.101,404.194 L132.848,399.04 L130.079,393.551 L128.137,387.867 L127.578,384.876 L127.599,385.015 L127.235,381.947 L126.853,376.7 L126.825,372.872 L127.067,368.805 L127.656,364.531 L128.668,360.083 L130.177,355.496 L132.26,350.8 L134.99,346.028 L138.444,341.209 L142.699,336.374 L147.833,331.551 L153.931,326.766 L161.077,322.048 L169.481,317.368 L174.323,314.99 L172.928,315.537 L176.052,314.557 L182.136,312.939 L187.563,311.861 L192.351,311.251 L196.569,311.039 L200.343,311.166 L203.827,311.609 L207.134,312.374 L210.321,313.477 L213.384,314.925 L216.295,316.707 L219.026,318.797 L221.555,321.163 L223.83,323.717 L226.879,327.964 L230.219,334.171 L232.753,340.663 L234.577,347.158 L235.801,353.38 L236.543,359.056 L236.919,363.918 L237.051,367.702 L237.058,370.163 L237.053,370.812 L237.055,370.75 L236.921,374.635 L235.781,382.216 L233.565,389.301 L230.365,395.838 L226.283,401.775 L221.427,407.062 L215.916,411.652 L209.877,415.506 L203.44,418.599 L196.715,420.924 L189.751,422.49 L182.516,423.301 L174.917,423.319 L166.877,422.463 L158.401,420.624 L149.361,417.607 L144.476,415.527 C144.476,415.527 144.476,415.527 144.476,415.527 C141.111,414.096 136.062,414.299 133.199,415.982 C130.336,417.664 130.742,420.189 134.107,421.62 L134.107,421.62" fill="#000000"/>
    </g>
    <g>
      <path d="M401.853,401.667 C298.319,401.667 531.779,593.667 561.433,623.001 C591.087,652.334 719.957,658.27 706.52,647.001 C657.186,605.628 645.561,474.016 689.853,468.074 C734.145,462.131 569.206,401.667 401.853,401.667 z" fill="#FFFFFF"/>
      <path d="M401.853,401.667 C298.319,401.667 531.779,593.667 561.433,623.001 C591.087,652.334 719.957,658.27 706.52,647.001 C657.186,605.628 645.561,474.016 689.853,468.074 C734.145,462.131 569.206,401.667 401.853,401.667 z" fill-opacity="0" stroke="#000000" stroke-width="8"/>
    </g>
    <g>
      <g>
        <path d="M583.92,598.971 C569.75,590.458 569.982,577.058 584.441,569.043 C598.899,561.027 622.107,561.431 636.278,569.944 C650.448,578.457 650.215,591.857 635.757,599.872 C621.299,607.888 598.091,607.484 583.92,598.971 z" fill="#EE0000"/>
        <path d="M583.92,598.971 C569.75,590.458 569.982,577.058 584.441,569.043 C598.899,561.027 622.107,561.431 636.278,569.944 C650.448,578.457 650.215,591.857 635.757,599.872 C621.299,607.888 598.091,607.484 583.92,598.971 z" fill-opacity="0" stroke="#2C9900" stroke-width="14"/>
      </g>
      <g>
        <path d="M593.013,593.93 C583.765,588.374 583.917,579.628 593.353,574.397 C602.789,569.166 617.936,569.429 627.185,574.985 C636.433,580.541 636.281,589.286 626.845,594.518 C617.409,599.749 602.262,599.486 593.013,593.93 z" fill="#EE0000"/>
        <path d="M593.013,593.93 C583.765,588.374 583.917,579.628 593.353,574.397 C602.789,569.166 617.936,569.429 627.185,574.985 C636.433,580.541 636.281,589.286 626.845,594.518 C617.409,599.749 602.262,599.486 593.013,593.93 z" fill-opacity="0" stroke="#FFFFFF" stroke-width="10"/>
      </g>
    </g>
    <g>
      <path d="M194.612,267.977 C194.237,266.734 259.074,291.37 273.227,304.885 C287.379,318.401 355.227,265.885 354.613,229.717 C354,193.549 255.945,174.643 255.945,174.643 C255.945,174.643 194.612,267.977 194.612,267.977 z" fill="#BFDBFF"/>
      <path d="M194.612,267.977 C194.237,266.734 259.074,291.37 273.227,304.885 C287.379,318.401 355.227,265.885 354.613,229.717 C354,193.549 255.945,174.643 255.945,174.643 C255.945,174.643 194.612,267.977 194.612,267.977 z" fill-opacity="0" stroke="#001699" stroke-width="8"/>
    </g>
    <path d="M858.328,442.502 C729.925,458.502 332.074,354.4 329.372,334.965 C324.568,307.226 368.372,233.783 409.372,230.783 C544.372,276.502 635.02,335.063 869,373 C884.02,380.063 931.925,415.502 858.328,442.502 z" fill="url(#Gradient_1)"/>
    <g>
      <path d="M901.727,283.106 C917.88,284.519 925.419,297.578 918.567,312.273 C911.714,326.968 893.065,337.736 876.912,336.322 C860.759,334.909 853.22,321.851 860.073,307.156 C866.925,292.46 885.574,281.693 901.727,283.106 z" fill="#EE0000"/>
      <path d="M901.727,283.106 C917.88,284.519 925.419,297.578 918.567,312.273 C911.714,326.968 893.065,337.736 876.912,336.322 C860.759,334.909 853.22,321.851 860.073,307.156 C866.925,292.46 885.574,281.693 901.727,283.106 z" fill-opacity="0" stroke="#2C9900" stroke-width="14"/>
    </g>
    <g>
      <path d="M897.417,292.348 C907.96,293.271 912.88,301.793 908.408,311.384 C903.935,320.975 891.764,328.002 881.222,327.08 C870.68,326.158 865.759,317.635 870.231,308.044 C874.704,298.453 886.875,291.426 897.417,292.348 z" fill="#EE0000"/>
      <path d="M897.417,292.348 C907.96,293.271 912.88,301.793 908.408,311.384 C903.935,320.975 891.764,328.002 881.222,327.08 C870.68,326.158 865.759,317.635 870.231,308.044 C874.704,298.453 886.875,291.426 897.417,292.348 z" fill-opacity="0" stroke="#FFFFFF" stroke-width="10"/>
    </g>
    <g>
      <path d="M392.21,262.534 C407.003,256.729 443.74,269.825 452.019,279.208 C460.298,288.591 445.437,330.949 434.932,338.035 C424.427,345.122 367.769,323.537 363.301,317.37 C358.833,311.203 377.417,268.34 392.21,262.534 z" fill="#BFDBFF"/>
      <path d="M392.21,262.534 C407.003,256.729 443.74,269.825 452.019,279.208 C460.298,288.591 445.437,330.949 434.932,338.035 C424.427,345.122 367.769,323.537 363.301,317.37 C358.833,311.203 377.417,268.34 392.21,262.534 z" fill-opacity="0" stroke="#001699" stroke-width="8"/>
    </g>
    <g>
      <path d="M481.699,298.672 C497.335,290.836 531.703,302.018 537.699,313.845 C543.695,325.672 531.601,359.082 518.699,363.672 C505.796,368.262 474.032,357.498 464.699,350.672 C455.365,343.845 466.062,306.508 481.699,298.672 z" fill="#BFDBFF"/>
      <path d="M481.699,298.672 C497.335,290.836 531.703,302.018 537.699,313.845 C543.695,325.672 531.601,359.082 518.699,363.672 C505.796,368.262 474.032,357.498 464.699,350.672 C455.365,343.845 466.062,306.508 481.699,298.672 z" fill-opacity="0" stroke="#001699" stroke-width="8"/>
    </g>
    <g>
      <path d="M565.311,325.605 C579.674,318.028 611.239,328.841 616.747,340.278 C622.254,351.715 611.146,384.024 599.295,388.462 C587.445,392.901 558.27,382.492 549.697,375.891 C541.125,369.289 550.949,333.183 565.311,325.605 z" fill="#BFDBFF"/>
      <path d="M565.311,325.605 C579.674,318.028 611.239,328.841 616.747,340.278 C622.254,351.715 611.146,384.024 599.295,388.462 C587.445,392.901 558.27,382.492 549.697,375.891 C541.125,369.289 550.949,333.183 565.311,325.605 z" fill-opacity="0" stroke="#001699" stroke-width="8"/>
    </g>
    <g>
      <path d="M642.917,350.224 C656.335,343.73 685.825,352.997 690.97,362.798 C696.115,372.6 685.738,400.289 674.666,404.093 C663.595,407.897 636.338,398.977 628.329,393.319 C620.321,387.662 629.499,356.718 642.917,350.224 z" fill="#BFDBFF"/>
      <path d="M642.917,350.224 C656.335,343.73 685.825,352.997 690.97,362.798 C696.115,372.6 685.738,400.289 674.666,404.093 C663.595,407.897 636.338,398.977 628.329,393.319 C620.321,387.662 629.499,356.718 642.917,350.224 z" fill-opacity="0" stroke="#001699" stroke-width="8"/>
    </g>
    <g>
      <path d="M783.26,383.425 C793.432,378.327 815.79,385.601 819.69,393.295 C823.591,400.989 815.724,422.724 807.33,425.71 C798.936,428.696 778.272,421.694 772.2,417.253 C766.128,412.812 773.087,388.522 783.26,383.425 z" fill="#BFDBFF"/>
      <path d="M783.26,383.425 C793.432,378.327 815.79,385.601 819.69,393.295 C823.591,400.989 815.724,422.724 807.33,425.71 C798.936,428.696 778.272,421.694 772.2,417.253 C766.128,412.812 773.087,388.522 783.26,383.425 z" fill-opacity="0" stroke="#001699" stroke-width="8"/>
    </g>
    <g>
      <path d="M715.223,368.953 C726.912,363.095 752.602,371.454 757.084,380.295 C761.567,389.136 752.526,414.11 742.882,417.541 C733.237,420.972 709.492,412.927 702.516,407.824 C695.539,402.721 703.535,374.81 715.223,368.953 z" fill="#BFDBFF"/>
      <path d="M715.223,368.953 C726.912,363.095 752.602,371.454 757.084,380.295 C761.567,389.136 752.526,414.11 742.882,417.541 C733.237,420.972 709.492,412.927 702.516,407.824 C695.539,402.721 703.535,374.81 715.223,368.953 z" fill-opacity="0" stroke="#001699" stroke-width="8"/>
    </g>
    <g>
      <path d="M842.562,391.101 C851.96,386.391 872.616,393.112 876.22,400.22 C879.824,407.329 872.555,427.409 864.8,430.168 C857.045,432.927 837.954,426.458 832.344,422.355 C826.735,418.252 833.164,395.81 842.562,391.101 z" fill="#BFDBFF"/>
      <path d="M842.562,391.101 C851.96,386.391 872.616,393.112 876.22,400.22 C879.824,407.329 872.555,427.409 864.8,430.168 C857.045,432.927 837.954,426.458 832.344,422.355 C826.735,418.252 833.164,395.81 842.562,391.101 z" fill-opacity="0" stroke="#001699" stroke-width="8"/>
    </g>
    <path d="M244.062,209.256 L286.261,194.285" fill-opacity="0" stroke="#AAB6FF" stroke-width="8"/>
    <path d="M237.923,229.352 L306.528,206.613" fill-opacity="0" stroke="#AAB6FF" stroke-width="8"/>
    <path d="M267.831,290.888 L310.104,278" fill-opacity="0" stroke="#AAB6FF" stroke-width="8"/>
    <path d="M259.123,237.781 L301.395,224.893" fill-opacity="0" stroke="#AAB6FF" stroke-width="8"/>
  </g>
  <defs>
    <linearGradient id="Gradient_1" gradientUnits="userSpaceOnUse" x1="349.162" y1="327.895" x2="941.018" y2="327.895">
      <stop offset="0" stop-color="#E12E00"/>
      <stop offset="1" stop-color="#FF8626"/>
    </linearGradient>
  </defs>
</svg>
